<mxfile host="app.diagrams.net" modified="2024-01-03T13:44:53.521Z" agent="Mozilla/5.0 (Windows NT 10.0; Win64; x64) AppleWebKit/537.36 (KHTML, like Gecko) Chrome/120.0.0.0 Safari/537.36" etag="fj8Qlsni8OWtKNjNCzPn" version="22.1.16" type="google">
  <diagram name="Seite-1" id="VUrBQxBBXcdhMkHFic37">
    <mxGraphModel grid="1" page="1" gridSize="10" guides="1" tooltips="1" connect="1" arrows="1" fold="1" pageScale="1" pageWidth="827" pageHeight="1169" math="0" shadow="0">
      <root>
        <mxCell id="0" />
        <mxCell id="1" parent="0" />
        <mxCell id="68cDzx84l8GaMlOZDwL8-1" value="Mutter" style="rounded=0;whiteSpace=wrap;html=1;" vertex="1" parent="1">
          <mxGeometry x="320" y="240" width="60" height="40" as="geometry" />
        </mxCell>
        <mxCell id="68cDzx84l8GaMlOZDwL8-2" value="[0]" style="text;html=1;strokeColor=none;fillColor=none;align=center;verticalAlign=middle;whiteSpace=wrap;rounded=0;" vertex="1" parent="1">
          <mxGeometry x="320" y="210" width="60" height="30" as="geometry" />
        </mxCell>
        <mxCell id="68cDzx84l8GaMlOZDwL8-3" value="Vater" style="rounded=0;whiteSpace=wrap;html=1;" vertex="1" parent="1">
          <mxGeometry x="380" y="240" width="60" height="40" as="geometry" />
        </mxCell>
        <mxCell id="68cDzx84l8GaMlOZDwL8-4" value="[1]" style="text;html=1;strokeColor=none;fillColor=none;align=center;verticalAlign=middle;whiteSpace=wrap;rounded=0;" vertex="1" parent="1">
          <mxGeometry x="380" y="210" width="60" height="30" as="geometry" />
        </mxCell>
        <mxCell id="68cDzx84l8GaMlOZDwL8-5" value="Heidi" style="rounded=0;whiteSpace=wrap;html=1;fillColor=#f8cecc;strokeColor=#b85450;" vertex="1" parent="1">
          <mxGeometry x="440" y="240" width="60" height="40" as="geometry" />
        </mxCell>
        <mxCell id="68cDzx84l8GaMlOZDwL8-6" value="[2]" style="text;html=1;strokeColor=none;fillColor=none;align=center;verticalAlign=middle;whiteSpace=wrap;rounded=0;fontColor=#F8CECC;" vertex="1" parent="1">
          <mxGeometry x="440" y="210" width="60" height="30" as="geometry" />
        </mxCell>
        <mxCell id="68cDzx84l8GaMlOZDwL8-7" value="Peter" style="rounded=0;whiteSpace=wrap;html=1;" vertex="1" parent="1">
          <mxGeometry x="500" y="240" width="60" height="40" as="geometry" />
        </mxCell>
        <mxCell id="68cDzx84l8GaMlOZDwL8-8" value="[3]" style="text;html=1;strokeColor=none;fillColor=none;align=center;verticalAlign=middle;whiteSpace=wrap;rounded=0;" vertex="1" parent="1">
          <mxGeometry x="500" y="210" width="60" height="30" as="geometry" />
        </mxCell>
        <mxCell id="68cDzx84l8GaMlOZDwL8-9" style="edgeStyle=none;html=1;exitX=1;exitY=0.5;exitDx=0;exitDy=0;entryX=0;entryY=0.5;entryDx=0;entryDy=0;" edge="1" parent="1" source="68cDzx84l8GaMlOZDwL8-10" target="68cDzx84l8GaMlOZDwL8-1">
          <mxGeometry relative="1" as="geometry" />
        </mxCell>
        <mxCell id="68cDzx84l8GaMlOZDwL8-10" value="family" style="text;html=1;strokeColor=none;fillColor=none;align=center;verticalAlign=middle;whiteSpace=wrap;rounded=0;" vertex="1" parent="1">
          <mxGeometry x="220" y="245" width="60" height="30" as="geometry" />
        </mxCell>
        <mxCell id="68cDzx84l8GaMlOZDwL8-11" value="Klara" style="rounded=0;whiteSpace=wrap;html=1;" vertex="1" parent="1">
          <mxGeometry x="560" y="240" width="60" height="40" as="geometry" />
        </mxCell>
        <mxCell id="68cDzx84l8GaMlOZDwL8-12" value="[4]" style="text;html=1;strokeColor=none;fillColor=none;align=center;verticalAlign=middle;whiteSpace=wrap;rounded=0;" vertex="1" parent="1">
          <mxGeometry x="560" y="210" width="60" height="30" as="geometry" />
        </mxCell>
      </root>
    </mxGraphModel>
  </diagram>
</mxfile>
